<svg width="50" height="50" viewBox="0 0 50 50" fill="none" xmlns="http://www.w3.org/2000/svg">
<circle cx="25" cy="25" r="25" fill="#5129A6"/>
<path fill-rule="evenodd" clip-rule="evenodd" d="M16.5218 16C18.468 16 20.2787 16.5776 21.7815 17.5731V16.0492H26.0435V17.4133C23.3336 19.097 21.5352 22.0833 21.5352 25.4998C21.5352 28.9163 23.3336 31.9027 26.0435 33.5863V34.9505H21.7815V33.4266C20.2787 34.422 18.468 34.9996 16.5218 34.9996C11.2743 34.9996 7 30.7475 7 25.4998C7 20.2522 11.2743 16 16.5218 16ZM16.5218 20.5471C19.2687 20.5471 21.4859 22.7593 21.4859 25.4998C21.4859 28.2404 19.2687 30.4525 16.5218 30.4525C13.7872 30.4525 11.5576 28.2404 11.5576 25.4998C11.5576 22.7593 13.7872 20.5471 16.5218 20.5471Z" fill="#FBF9FE"/>
<path fill-rule="evenodd" clip-rule="evenodd" d="M38.1397 16.0492H42.4017V25.4998V34.9505H38.1397V33.4266C36.6369 34.422 34.8262 34.9996 32.8799 34.9996C27.6202 34.9996 23.3582 30.7475 23.3582 25.4998C23.3582 20.2522 27.6202 16 32.8799 16C34.8262 16 36.6369 16.5776 38.1397 17.5731V16.0492ZM32.8799 20.5471C35.6268 20.5471 37.8441 22.7593 37.8441 25.4998C37.8441 28.2404 35.6268 30.4525 32.8799 30.4525C30.1453 30.4525 27.9158 28.2404 27.9158 25.4998C27.9158 22.7593 30.1453 20.5471 32.8799 20.5471Z" fill="#FBF9FE"/>
</svg>
